<svg width="580" height="400" xmlns="http://www.w3.org/2000/svg">
 <!-- Created with Method Draw - http://github.com/duopixel/Method-Draw/ -->
 <g>
  <title>background</title>
  <rect fill="none" id="canvas_background" height="402" width="582" y="-1" x="-1"/>
 </g>
 <g>
  <title>Layer 1</title>
  <rect rx="20" id="svg_2" height="77" width="126" y="100" x="321.5" stroke-width="1.5" stroke="#000000" fill="#444444"/>
  <rect stroke="#000000" transform="rotate(-19.025606155395508 348.4999999999999,133.50000000000009) " id="svg_9" height="7.763007" width="11.446702" y="129.618497" x="342.776649" stroke-width="1.5" fill="#666666"/>
  <rect rx="20" id="svg_1" height="77" width="126" y="100" x="132.5" stroke-width="1.5" stroke="#000000" fill="#444444"/>
  <rect rx="20" id="svg_3" height="77" width="126" y="207" x="320.5" stroke-width="1.5" stroke="#000000" fill="#444444"/>
  <rect rx="20" id="svg_4" height="77" width="126" y="208" x="131.5" stroke-width="1.5" stroke="#000000" fill="#444444"/>
  <ellipse stroke="#000000" ry="18.5" rx="19.5" id="svg_8" cy="153.5" cx="356" stroke-width="1.5" fill="#666666"/>
  <path stroke="#ffffff" d="m348.02,130c0,0 0,-0.612903 -0.56,-0.612903c0,0 0,0 0,0c0,0 0,0 0,0c-0.56,0 -0.56,0 -0.56,0c0,0 0,0 0,0c0,0 -0.56,0 -0.56,-0.612903c0,0 0,0 0,0c0,0 0.39598,-0.179524 0,-0.612903c-0.39598,-0.433379 -0.56,-0.612903 -0.56,-0.612903c0,0 0,-0.612903 0,-0.612903c-0.56,0 -0.56,0 -0.56,0c0,0 0,0 0,-0.612903c0,0 0,0 -0.56,0c0,0 0,0 0,0c0,0 0,0 0,0c0,-0.612903 -0.56,-0.612903 -0.56,-0.612903c0,0 0,-0.612903 -0.56,-0.612903c0,0 0,0 0,-0.612903c0,0 0,0 -0.56,0c0,0 0,0 0,0c0,0 0,0 0,0c-0.56,0 -0.56,0 -0.56,0c0,0 0,0 0,0c0,0 -0.56,0 -0.56,0c0,0 0,0 0,0c0,0 0,0 -0.56,0c0,0 0,0 0,0c0,0 0.39598,0.179524 0,0.612903c-0.39598,0.433379 -0.56,0 -0.56,0c0,0 0,0 0,0c0,0.612903 -0.56,0.612903 -0.56,0.612903c0,0 0,0 0,0c0,0.612903 0,0.612903 -0.56,0.612903c0,0 0,0 0,0c0,0 0,0.612903 0,0.612903c-0.56,0 -0.56,0 -0.56,0c0,0 0,0 0,0.612903c0,0 -0.56,0 -0.56,0c0,0 0,0 0,0c0,0.612903 0,0.612903 0,0.612903c0,0 0,0.612903 0,0.612903c0,0 0,0 0,0c0,0 0.56,0 0.56,0c0,0 0,0 0,0c0,0 0,0 0.56,0c0,0 0,0 0,0c0,0 0,0 0.56,0c0,0 0,0 0,0c0,0 0,0 0,0c0.56,0 0.56,0 0.56,0c0,0 0,0 0,0c0.56,-0.612903 0.56,-0.612903 0.56,-0.612903c0,0 0,0 0.56,0c0,0 0,0 0,0c0,-0.612903 0,-0.612903 0.56,-0.612903c0,0 0,0 0,0c0,0 0,-0.612903 0.56,-0.612903c0,0 0,0 0,0c0,0 -0.39598,-0.179524 0,-0.612903c0.39598,-0.433379 0.56,0 0.56,0c0,0 0,0 0,0c0,-0.612903 0.56,-0.612903 0.56,-0.612903c0,0 0,0 0,0c0,-0.612903 0,-0.612903 0.56,-0.612903c0,0 0,0 0,0c0,0 0,-0.612903 0,-0.612903c0.56,0 0.56,0 0.56,0c0,0 0,0 0,-0.612903c0,0 0,0 0,0c0,0 0.14364,0.124421 0.56,-0.612903c0.931003,-1.648711 3.265801,-5.223257 5.04,-9.193549c0.778041,-1.741092 1.12,-2.451613 1.68,-2.451613c0,0 0,-0.612903 0,-0.612903l0,0l0,0l0,0" id="svg_11" fill-opacity="null" stroke-width="1.5" fill="none"/>
  <text xml:space="preserve" text-anchor="start" font-family="Georgia, Times, 'Times New Roman', serif" font-size="15" id="svg_12" y="120" x="376.5" stroke-width="0" stroke="#ffffff" fill="#ffffff">Bombs</text>
  <text xml:space="preserve" text-anchor="start" font-family="Georgia, Times, 'Times New Roman', serif" font-size="15" id="svg_13" y="142" x="382.5" stroke-width="0" stroke="#ffffff" fill="#ffffff">and</text>
  <text xml:space="preserve" text-anchor="start" font-family="Georgia, Times, 'Times New Roman', serif" font-size="15" id="svg_14" y="162" x="390.5" stroke-width="0" stroke="#ffffff" fill="#ffffff">Items</text>
  <path id="svg_15" d="m216.837499,226.771583l8.021344,0l2.478657,-7.639342l2.478658,7.639342l8.021343,0l-6.489392,4.721319l2.478785,7.639342l-6.489395,-4.721448l-6.489393,4.721448l2.478786,-7.639342l-6.489394,-4.721319z" stroke-width="1.5" stroke="#ffffff" fill="#ffffff"/>
  <path transform="rotate(32.04420852661133 210.83749389648438,246.63224792480466) " stroke="#ffffff" id="svg_16" d="m204.837497,245.333882l4.583625,0l1.416375,-4.201638l1.416377,4.201638l4.583624,0l-3.708224,2.596726l1.416449,4.201639l-3.708226,-2.596796l-3.708225,2.596796l1.416449,-4.201639l-3.708225,-2.596726z" stroke-width="1.5" fill="#ffffff"/>
  <path transform="rotate(-27.3770751953125 238.33749389648443,262.1322631835938) " stroke="#ffffff" id="svg_17" d="m233.837496,260.951915l3.437719,0l1.062282,-3.819671l1.062282,3.819671l3.437718,0l-2.781167,2.36066l1.062337,3.819671l-2.781169,-2.360724l-2.781169,2.360724l1.062337,-3.819671l-2.781169,-2.36066z" stroke-width="1.5" fill="#ffffff"/>
  <path stroke="#ffffff" transform="rotate(-7.190474033355713 221.33749389648503,269.63226318359386) " id="svg_18" d="m219.794794,269.286683l1.178527,0l0.364174,-1.118283l0.364174,1.118283l1.178526,0l-0.953446,0.691129l0.364192,1.118283l-0.953447,-0.691147l-0.953447,0.691147l0.364193,-1.118283l-0.953447,-0.691129z" stroke-width="1.5" fill="#ffffff"/>
  <text style="cursor: move;" xml:space="preserve" text-anchor="start" font-family="Georgia, Times, 'Times New Roman', serif" font-size="15" id="svg_19" y="232" x="150.5" stroke-width="0" stroke="#ffffff" fill="#ffffff">Pets</text>
  <text xml:space="preserve" text-anchor="start" font-family="Georgia, Times, 'Times New Roman', serif" font-size="15" id="svg_20" y="251" x="146.5" stroke-width="0" stroke="#ffffff" fill="#ffffff">and</text>
  <text xml:space="preserve" text-anchor="start" font-family="Georgia, Times, 'Times New Roman', serif" font-size="15" id="svg_21" y="271" x="147.5" stroke-width="0" stroke="#ffffff" fill="#ffffff">Effects</text>
  <path id="svg_22" d="m204.562501,127.034426c12.666667,-14.301636 25.333331,14.301635 37.999996,0l0,25.742941c-12.666664,14.301637 -25.333329,-14.301634 -37.999996,0l0,-25.742941z" stroke-width="1.5" stroke="#000000" fill="#ffffff"/>
  <path id="svg_23" d="m206.887505,134.286596l13.368906,0l4.131095,-13.368848l4.131097,13.368848l13.368904,0l-10.815652,8.262308l4.131309,13.368848l-10.815657,-8.262533l-10.815655,8.262533l4.13131,-13.368848l-10.815656,-8.262308z" stroke-opacity="null" stroke-width="1.5" fill="#00ffff"/>
  <text style="cursor: move;" xml:space="preserve" text-anchor="start" font-family="Georgia, Times, 'Times New Roman', serif" font-size="15" id="svg_24" y="123" x="151.5" stroke-width="0" stroke="#ffffff" fill="#ffffff">Ranks</text>
  <text xml:space="preserve" text-anchor="start" font-family="Georgia, Times, 'Times New Roman', serif" font-size="15" id="svg_25" y="142" x="160.5" stroke-width="0" stroke="#ffffff" fill="#ffffff">and</text>
  <text style="cursor: move;" xml:space="preserve" text-anchor="start" font-family="Georgia, Times, 'Times New Roman', serif" font-size="15" id="svg_26" y="162" x="148.5" stroke-width="0" stroke="#ffffff" fill="#ffffff">Classes</text>
  <rect id="svg_27" height="31" width="38" y="240" x="342.5" stroke-width="1.5" stroke="#000000" fill="#ffffff"/>
  <rect id="svg_28" height="20" width="58" y="222" x="333.5" stroke-opacity="null" stroke-width="1.5" stroke="#000000" fill="#ffffff"/>
  <text xml:space="preserve" text-anchor="start" font-family="Georgia, Times, 'Times New Roman', serif" font-size="15" id="svg_29" y="265" x="389.5" stroke-width="0" stroke="#ffffff" fill="#ffffff">Crates</text>
 </g>
</svg>